<svg width="151" height="85" viewBox="0 0 151 85" fill="none" xmlns="http://www.w3.org/2000/svg">
<rect width="151" height="85" rx="16" fill="#E2E8F0"/>
<path d="M66.5 45.4902C65.675 45.4902 64.9688 45.1965 64.3813 44.609C63.7938 44.0215 63.5 43.3152 63.5 42.4902C63.5 41.6652 63.7938 40.959 64.3813 40.3715C64.9688 39.784 65.675 39.4902 66.5 39.4902C67.325 39.4902 68.0312 39.784 68.6188 40.3715C69.2063 40.959 69.5 41.6652 69.5 42.4902C69.5 43.3152 69.2063 44.0215 68.6188 44.609C68.0312 45.1965 67.325 45.4902 66.5 45.4902ZM75.5 45.4902C74.675 45.4902 73.9688 45.1965 73.3813 44.609C72.7938 44.0215 72.5 43.3152 72.5 42.4902C72.5 41.6652 72.7938 40.959 73.3813 40.3715C73.9688 39.784 74.675 39.4902 75.5 39.4902C76.325 39.4902 77.0312 39.784 77.6187 40.3715C78.2062 40.959 78.5 41.6652 78.5 42.4902C78.5 43.3152 78.2062 44.0215 77.6187 44.609C77.0312 45.1965 76.325 45.4902 75.5 45.4902ZM84.5 45.4902C83.675 45.4902 82.9688 45.1965 82.3813 44.609C81.7938 44.0215 81.5 43.3152 81.5 42.4902C81.5 41.6652 81.7938 40.959 82.3813 40.3715C82.9688 39.784 83.675 39.4902 84.5 39.4902C85.325 39.4902 86.0312 39.784 86.6187 40.3715C87.2062 40.959 87.5 41.6652 87.5 42.4902C87.5 43.3152 87.2062 44.0215 86.6187 44.609C86.0312 45.1965 85.325 45.4902 84.5 45.4902Z" fill="#94A3B8"/>
</svg>
